# Blender 4.4.0
# www.blender.org
mtllib Mine_Stone.mtl
o Cube.001
v -1.000000 -1.000000 1.000000
v 1.000000 -1.000000 1.000000
v -1.000000 -1.000000 -1.000000
v 1.000000 -1.000000 -1.000000
v -1.000000 1.000000 1.000000
v 1.000000 1.000000 1.000000
v -1.000000 1.000000 -1.000000
v 1.000000 1.000000 -1.000000
vn -1.0000 -0.0000 -0.0000
vn -0.0000 -0.0000 -1.0000
vn -0.0000 1.0000 -0.0000
vn 1.0000 -0.0000 -0.0000
vn -0.0000 -1.0000 -0.0000
vn -0.0000 -0.0000 1.0000
vt 1.002807 -0.000113
vt 0.009004 0.993690
vt 0.009004 -0.000113
vt 1.007043 -0.006814
vt 0.007751 0.992478
vt 0.007751 -0.006814
vt 0.994188 0.010514
vt 0.005812 0.998891
vt 0.005812 0.010514
vt 1.000768 0.004909
vt 0.007145 0.998531
vt 0.007145 0.004909
vt 0.997415 0.004305
vt 0.002585 0.999135
vt 0.002585 0.004305
vt 0.998117 0.010025
vt 0.016676 0.991466
vt 0.016676 0.010025
vt 1.002807 0.993690
vt 1.007043 0.992478
vt 0.994188 0.998891
vt 1.000768 0.998531
vt 0.997415 0.999135
vt 0.998117 0.991466
s 1
usemtl mat_stone
f 5/1/1 3/2/1 1/3/1
f 3/4/2 8/5/2 4/6/2
f 7/7/3 6/8/3 8/9/3
f 2/10/4 8/11/4 6/12/4
f 1/13/5 4/14/5 2/15/5
f 5/16/6 2/17/6 6/18/6
f 5/1/1 7/19/1 3/2/1
f 3/4/2 7/20/2 8/5/2
f 7/7/3 5/21/3 6/8/3
f 2/10/4 4/22/4 8/11/4
f 1/13/5 3/23/5 4/14/5
f 5/16/6 1/24/6 2/17/6
